<svg width="173" height="106" xmlns="http://www.w3.org/2000/svg">
 <defs>
  <filter id="svg_11_blur" x="-50%" y="-50%" width="200%" height="200%">
   <feGaussianBlur in="SourceGraphic" stdDeviation="2"/>
  </filter>
 </defs>
 <g>
  <title>Layer 1</title>
  <g id="svg_18">
   <line fill="none" x1="4" y1="35.31528" x2="158" y2="35.31528" id="svg_2" stroke-width="4" stroke="#000"/>
   <line fill="none" stroke="#000" x1="60" y1="34.31528" x2="62" y2="34.31528" id="svg_3"/>
   <line fill="none" x1="3" y1="69.81528" x2="157" y2="69.81528" id="svg_5" stroke-width="4" stroke="#000"/>
   <g id="svg_10">
    <line fill="none" x1="0" y1="35.31528" x2="154" y2="35.31528" id="svg_4" stroke-width="4" stroke="#000"/>
    <line fill="none" x1="0" y1="69.81528" x2="154" y2="69.81528" id="svg_6" stroke-width="4" stroke="#000"/>
    <line fill="none" x1="0" y1="105.81528" x2="154" y2="105.81528" id="svg_7" stroke-width="4" stroke="#000"/>
   </g>
   <rect fill="#dd5858" stroke-width="4" x="8" y="5.81528" width="50" height="28" id="svg_11" stroke="#000" filter="url(#svg_11_blur)" rx="10"/>
   <rect fill="#dd5858" stroke-width="4" x="44" y="38.81528" width="50" height="28" id="svg_12" stroke="#000" filter="url(#svg_11_blur)" rx="10"/>
   <rect fill="#dd5858" stroke-width="4" x="9" y="73.81528" width="50" height="28" id="svg_13" stroke="#000" filter="url(#svg_11_blur)" rx="10"/>
   <text fill="#000000" stroke-width="0" x="127.01392" y="24.81528" id="svg_14" font-size="24" font-family="'Open Sans'" text-anchor="start" xml:space="preserve" stroke="#000" transform="matrix(1.8258 0 0 1 -158.145 1)">code</text>
   <text fill="#000000" stroke-width="0" x="124.8231" y="24.81528" id="svg_15" font-size="24" font-family="'Open Sans'" text-anchor="start" xml:space="preserve" stroke="#000" transform="matrix(1.8258 0 0 1 -158.145 1)">code</text>
   <text fill="#000000" stroke-width="0" x="145.25611" y="72.81528" id="svg_16" font-size="24" font-family="'Open Sans'" text-anchor="start" xml:space="preserve" stroke="#000" transform="matrix(1.79094 0 0 1 -196.446 25)">code</text>
   <text fill="#000000" stroke-width="0" x="123.72769" y="95.81528" id="svg_17" font-size="24" font-family="'Open Sans'" text-anchor="start" xml:space="preserve" stroke="#000" transform="matrix(1.8258 0 0 1 -158.145 1)">code</text>
  </g>
 </g>
</svg>